<svg width="217" height="42" viewBox="0 0 217 42" fill="none" xmlns="http://www.w3.org/2000/svg">
<g clip-path="url(#clip0_81_6219)">
<path d="M34.5964 15.0168V0L26.0384 8.38518L20.6355 8.39753C18.8326 8.40371 17.0357 8.40988 15.2327 8.41605L6.66848 0.0308733V15.0476L0.5 21.1605L3.04396 24.217C4.65554 24.2108 6.26095 24.1985 7.87254 24.1923L12.6023 29.2679C15.2821 26.6498 17.9557 24.0379 20.6355 21.4199C23.3154 24.0256 25.989 26.6251 28.6688 29.2308C30.2433 27.539 31.824 25.8471 33.3986 24.1552C35.0101 24.1614 36.6156 24.1738 38.2271 24.1799L40.7711 21.1235L34.6026 15.0106L34.5964 15.0168Z" fill="#50B795"/>
<path d="M12.5961 35.7142L17.8199 42H20.6294V41.9692H23.4388L28.6626 35.6834C25.9828 33.0777 23.3092 30.4781 20.6294 27.8724C20.6294 27.8724 15.2759 33.1147 12.5961 35.7204V35.7142Z" fill="#50B795"/>
<path d="M105.339 34.998C97.3248 34.998 91.4341 28.8357 91.4341 20.7098C91.4341 12.584 97.3248 7.00208 105.339 7.00208H112.292C120.535 7.00208 126.234 12.584 126.234 20.7098C126.234 28.8357 120.381 34.998 112.292 34.998H105.339ZM112.292 27.8724C116.392 27.8724 119.245 25.0197 119.245 21.0556C119.245 17.0915 116.355 14.0844 112.292 14.0844H105.339C101.388 14.0844 98.4609 17.0482 98.4609 21.0556C98.4609 25.0629 101.307 27.8724 105.339 27.8724H112.292Z" fill="#FEF9FB"/>
<path d="M129.427 34.998V7.00208H136.454V27.8786H153.625V35.0041H129.427V34.998Z" fill="#FEF9FB"/>
<path d="M180.559 14.0844V7.00208H156.324V34.998H163.313V24.3158H180.559V18.4622H163.313V14.0844H180.559Z" fill="#FEF9FB"/>
<path d="M195.415 34.9979V25.2914L181.245 6.99585H190.667L199.176 18.7833L207.721 6.99585H216.613L202.405 25.2914V34.9979H195.415Z" fill="#FEF9FB"/>
<path d="M93.8299 7.00208H85.9634L76.615 25.0876L67.989 7.00208H59.5544L66.0131 19.5798L62.8949 25.0876L53.5465 7.00208H45.1489L53.8861 23.2538L60.1472 35.0041H65.2783L69.4585 26.5325L73.6388 35.0041H78.7699L80.4247 31.8983L93.8052 7.00208H93.8299Z" fill="#FEF9FB"/>
</g>
<defs>
<clipPath id="clip0_81_6219">
<rect width="216.113" height="42" fill="white" transform="translate(0.5)"/>
</clipPath>
</defs>
</svg>
