<svg width="25" height="25" viewBox="0 0 25 25" fill="none" xmlns="http://www.w3.org/2000/svg">
<g id="medal 1">
<g id="layer1">
<path id="path2177" d="M18.1426 15.8328C18.0514 15.8352 17.964 15.8695 17.8954 15.9296C16.7516 16.9339 15.3512 17.6002 13.8503 17.8538C13.7923 17.8636 13.7372 17.8864 13.6892 17.9205C13.6412 17.9545 13.6015 17.999 13.5731 18.0506C13.5447 18.1022 13.5283 18.1595 13.5252 18.2183C13.5221 18.2771 13.5323 18.3358 13.5551 18.3901L15.9118 24.0084C15.9418 24.0798 15.9924 24.1406 16.0571 24.1831C16.1217 24.2257 16.1976 24.2481 16.275 24.2474C16.3524 24.2468 16.4279 24.2232 16.4919 24.1796C16.5558 24.136 16.6054 24.0743 16.6343 24.0025L17.7154 21.3085L20.449 22.4057C20.5205 22.4344 20.5988 22.4413 20.6743 22.4256C20.7497 22.4098 20.8187 22.3722 20.8728 22.3173C20.9268 22.2624 20.9635 22.1928 20.9781 22.1172C20.9927 22.0415 20.9846 21.9632 20.9548 21.8922L18.5134 16.0717C18.483 15.999 18.4313 15.9373 18.3651 15.8945C18.2989 15.8518 18.2214 15.8307 18.1426 15.8328Z" fill="#FF5757"/>
<path id="path2181" d="M6.48496 16.0762L4.04508 21.8929C3.91117 22.2126 4.22916 22.5354 4.55091 22.4063L7.28452 21.3092L8.3656 24.0032C8.49602 24.3268 8.95295 24.3301 9.08811 24.0091L11.4479 18.384C11.5453 18.1515 11.4004 17.8891 11.1519 17.8476C9.65047 17.5977 8.24846 16.9347 7.10218 15.9334C7.03271 15.8729 6.94407 15.8388 6.85193 15.8373C6.69212 15.8343 6.54676 15.9288 6.48496 16.0762Z" fill="#FF5757"/>
<path id="path2173" d="M12.5002 0.780975C7.54285 0.780975 3.51501 4.80881 3.51501 9.76612C3.51501 14.7234 7.54285 18.7484 12.5002 18.7484C17.4575 18.7484 21.4853 14.7234 21.4853 9.76612C21.4853 4.80881 17.4575 0.780975 12.5002 0.780975Z" fill="#FFCB3C"/>
<path id="path2336" d="M12.5002 2.73309C8.62156 2.73309 5.47009 5.88745 5.47009 9.76607C5.47009 13.6447 8.62156 16.7962 12.5002 16.7962C16.3788 16.7962 19.5303 13.6447 19.5303 9.76607C19.5303 5.88745 16.3788 2.73309 12.5002 2.73309Z" fill="#FFEA54"/>
<path id="path2974" d="M12.4973 5.27931C12.4227 5.28485 12.3512 5.31169 12.2914 5.35667C12.2316 5.40166 12.186 5.46289 12.1599 5.53306L11.1248 8.27532L8.19218 8.36462C8.11255 8.36748 8.0357 8.39465 7.97194 8.44243C7.90818 8.49021 7.86055 8.55636 7.83545 8.63198C7.81034 8.7076 7.80896 8.78907 7.83149 8.8655C7.85403 8.94193 7.89939 9.00964 7.9615 9.05956L10.2482 10.8935L9.42923 13.7078C9.40664 13.7848 9.40825 13.8668 9.43386 13.9428C9.45947 14.0187 9.50782 14.0849 9.57237 14.1325C9.63691 14.18 9.71452 14.2066 9.79466 14.2085C9.8748 14.2104 9.9536 14.1876 10.0204 14.1433L12.4685 12.5342L14.8936 14.1836C14.9597 14.2288 15.038 14.2526 15.1181 14.2517C15.1982 14.2509 15.276 14.2254 15.3411 14.1788C15.4063 14.1323 15.4555 14.0669 15.4822 13.9914C15.5089 13.9159 15.5118 13.834 15.4905 13.7569L14.7177 10.9281L17.0331 9.13453C17.0969 9.08587 17.144 9.01881 17.1683 8.94241C17.1926 8.86601 17.1928 8.784 17.1689 8.70749C17.1449 8.63098 17.098 8.56365 17.0346 8.5147C16.9711 8.46575 16.8941 8.43752 16.814 8.43383L13.8843 8.29537L12.8924 5.5387C12.8639 5.45822 12.8099 5.38925 12.7385 5.34239C12.6672 5.29552 12.5825 5.27347 12.4973 5.27931Z" fill="#FEAA2B"/>
</g>
</g>
</svg>
