<svg width="20" height="20" viewBox="0 0 20 20" fill="none" xmlns="http://www.w3.org/2000/svg">
<g id="Group">
<path id="Vector" d="M16.7809 7.15084V0L12.7057 3.99294L10.1329 3.99882C9.27433 4.00176 8.4187 4.0047 7.56012 4.00765L3.48191 0.0147016V7.16554L0.54454 10.0764L1.75595 11.5319C2.52337 11.529 3.28785 11.5231 4.05527 11.5201L6.30755 13.9371C7.58365 12.6904 8.8568 11.4466 10.1329 10.1999C11.409 11.4408 12.6821 12.6786 13.9582 13.9194C14.708 13.1138 15.4607 12.3081 16.2105 11.5025C16.9779 11.5054 17.7424 11.5113 18.5098 11.5143L19.7213 10.0588L16.7839 7.1479L16.7809 7.15084Z" fill="#50B795"/>
<path id="Vector_2" d="M6.30461 17.0068L8.79211 20H10.13V19.9853H11.4678L13.9553 16.9921C12.6792 15.7513 11.4061 14.5134 10.13 13.2726C10.13 13.2726 7.58071 15.7689 6.30461 17.0097V17.0068Z" fill="#50B795"/>
</g>
</svg>
